<svg xmlns="http://www.w3.org/2000/svg" viewBox="0 0 128 128">
  <defs>
    <linearGradient id="python-gradient" x1="0%" y1="0%" x2="100%" y2="100%">
      <stop offset="0%" style="stop-color:#3776AB;stop-opacity:1" />
      <stop offset="100%" style="stop-color:#FFD43B;stop-opacity:1" />
    </linearGradient>
  </defs>
  <path fill="url(#python-gradient)" d="M63.391 1.988c-4.222.02-8.252.379-11.8 1.007-10.45 1.846-12.346 5.71-12.346 12.837v9.411h24.693v3.137H29.977c-7.176 0-13.46 5.313-14.836 12.521-2.172 11.345-2.172 22.73 0 34.075 1.376 7.207 7.66 12.521 14.836 12.521h8.491V67.234c0-8.151 7.051-15.34 15.34-15.34h9.411c8.151 0 15.34 7.19 15.34 15.34v9.411h-7.176c-7.176 0-13.46 5.313-14.836 12.521-2.172 11.345-2.172 22.73 0 34.075 1.376 7.207 7.66 12.521 14.836 12.521h24.693c7.176 0 13.46-5.313 14.836-12.521 2.172-11.345 2.172-22.73 0-34.075-1.376-7.207-7.66-12.521-14.836-12.521h-9.411V15.832c0-7.176-5.313-13.46-12.521-14.836-3.548-.628-7.578-.987-11.8-1.007zM50.037 9.614c2.55 0 4.634 2.117 4.634 4.721 0 2.55-2.084 4.634-4.634 4.634-2.604 0-4.721-2.084-4.721-4.634 0-2.604 2.117-4.721 4.721-4.721z"/>
  <path fill="#FFD43B" d="M91.682 28.38v10.966c0 8.151-7.19 15.34-15.34 15.34H66.93c-8.151 0-15.34-7.19-15.34-15.34V28.38c0-8.151 7.19-15.34 15.34-15.34h9.411c8.151 0 15.34 7.19 15.34 15.34zM84.506 15.832c0-7.176-5.313-13.46-12.521-14.836-10.45-1.846-12.346-5.71-12.346-12.837V1.988c-4.222.02-8.252.379-11.8 1.007-7.207 1.376-12.521 7.66-12.521 14.836v9.411h24.693v3.137H29.977c-7.176 0-13.46 5.313-14.836 12.521-2.172 11.345-2.172 22.73 0 34.075 1.376 7.207 7.66 12.521 14.836 12.521h8.491V67.234c0-8.151 7.051-15.34 15.34-15.34h9.411c8.151 0 15.34 7.19 15.34 15.34v9.411h-7.176c-7.176 0-13.46 5.313-14.836 12.521-2.172 11.345-2.172 22.73 0 34.075 1.376 7.207 7.66 12.521 14.836 12.521h24.693c7.176 0 13.46-5.313 14.836-12.521 2.172-11.345 2.172-22.73 0-34.075-1.376-7.207-7.66-12.521-14.836-12.521h-9.411V15.832z"/>
  <path fill="#3776AB" d="M77.491 118.012c4.222-.02 8.252-.379 11.8-1.007 7.207-1.376 12.521-7.66 12.521-14.836v-9.411h-24.693v-3.137h24.693c7.176 0 13.46-5.313 14.836-12.521 2.172-11.345 2.172-22.73 0-34.075-1.376-7.207-7.66-12.521-14.836-12.521h-8.491v9.411c0 8.151-7.19 15.34-15.34 15.34h-9.411c-8.151 0-15.34-7.19-15.34-15.34v-9.411h7.176c7.176 0 13.46-5.313 14.836-12.521 2.172-11.345 2.172-22.73 0-34.075 1.376-7.207 7.66-12.521 14.836-12.521h24.693c7.176 0 13.46 5.313 14.836 12.521 2.172 11.345 2.172 22.73 0 34.075-1.376 7.207-7.66 12.521-14.836 12.521h9.411v9.411c0 7.176 5.313 13.46 12.521 14.836 3.548.628 7.578.987 11.8 1.007zM77.491 118.012c-4.222-.02-8.252-.379-11.8-1.007-7.207-1.376-12.521-7.66-12.521-14.836v-9.411h24.693v-3.137H98.023c7.176 0 13.46-5.313 14.836-12.521 2.172-11.345 2.172-22.73 0-34.075-1.376-7.207-7.66-12.521-14.836-12.521h-8.491v9.411c0 8.151-7.19 15.34-15.34 15.34h-9.411c-8.151 0-15.34-7.19-15.34-15.34v-9.411h7.176c7.176 0 13.46-5.313 14.836-12.521 2.172-11.345 2.172-22.73 0-34.075 1.376-7.207 7.66-12.521 14.836-12.521h24.693c7.176 0 13.46 5.313 14.836 12.521 2.172 11.345 2.172 22.73 0 34.075-1.376 7.207 7.66 12.521 14.836 12.521h9.411v9.411c0 7.176 5.313 13.46 12.521 14.836 3.548.628 7.578.987 11.8 1.007z"/>
  <circle fill="#FFD43B" cx="77.491" cy="113.614" r="4.634"/>
</svg> 